<?xml version="1.0" standalone="no"?>
<!DOCTYPE svg PUBLIC "-//W3C//DTD SVG 20010904//EN"
 "http://www.w3.org/TR/2001/REC-SVG-20010904/DTD/svg10.dtd">
<svg version="1.0" xmlns="http://www.w3.org/2000/svg"
 width="500.000000pt" height="500.000000pt" viewBox="0 0 500.000000 500.000000"
 preserveAspectRatio="xMidYMid meet">

<g transform="translate(0.000000,500.000000) scale(0.100000,-0.100000)"
fill="#000000" stroke="none">
<path d="M1528 2678 c-9 -7 -18 -26 -20 -43 -3 -28 -6 -30 -48 -33 -24 -2 -48
-9 -52 -15 -13 -20 -9 -242 4 -255 17 -17 329 -17 346 0 17 17 17 242 -1 256
-7 6 -30 12 -51 14 -35 3 -39 6 -42 33 -2 16 -11 35 -20 42 -23 17 -95 17
-116 1z m117 -53 c0 -17 -8 -20 -54 -23 -57 -3 -78 7 -67 33 4 13 18 15 63 13
50 -3 58 -6 58 -23z m-20 -125 c0 -18 -62 -27 -77 -12 -18 18 3 33 40 30 25
-2 37 -8 37 -18z"/>
<path d="M2897 2673 c-4 -3 -7 -84 -7 -180 l0 -173 29 0 29 0 3 86 c4 76 7 88
28 105 28 23 45 24 65 3 12 -12 16 -37 16 -105 l0 -89 31 0 31 0 -4 110 c-2
85 -7 113 -20 126 -22 23 -91 23 -115 1 -27 -24 -33 -13 -33 60 0 59 -1 63
-23 63 -13 0 -27 -3 -30 -7z"/>
<path d="M1930 2649 c-59 -23 -79 -96 -37 -140 12 -13 42 -30 67 -38 80 -24
90 -29 90 -54 0 -13 -5 -28 -12 -35 -19 -19 -82 -14 -112 9 -26 20 -28 20 -46
4 -23 -21 -18 -36 18 -57 71 -41 169 -29 203 25 40 64 1 139 -79 152 -81 13
-109 40 -77 75 22 25 67 26 102 3 24 -16 26 -16 39 2 20 28 18 34 -21 51 -39
16 -98 17 -135 3z"/>
<path d="M2197 2623 c-4 -3 -7 -15 -7 -26 0 -10 -9 -21 -20 -24 -11 -3 -20
-13 -20 -23 0 -10 9 -20 20 -23 18 -5 20 -14 20 -85 0 -103 16 -127 84 -126
54 1 60 5 51 33 -4 13 -16 21 -38 23 l-32 3 0 75 0 75 33 3 c24 2 32 8 32 23
0 15 -7 19 -35 19 -32 0 -35 2 -35 30 0 25 -4 30 -23 30 -13 0 -27 -3 -30 -7z"/>
<path d="M2440 2573 c-14 -2 -36 -13 -50 -23 -23 -17 -24 -21 -9 -35 14 -14
18 -14 47 1 42 20 76 15 80 -13 3 -19 -5 -24 -57 -39 -33 -9 -66 -23 -72 -30
-16 -20 -13 -84 5 -102 22 -22 89 -21 114 1 17 16 21 16 32 2 19 -23 70 -20
70 4 0 10 -7 21 -15 25 -12 4 -15 23 -15 85 0 61 -4 83 -17 99 -19 21 -69 32
-113 25z m70 -161 c0 -36 -16 -52 -52 -52 -51 0 -49 57 3 71 43 12 49 10 49
-19z"/>
<path d="M2703 2572 c-38 -12 -63 -40 -63 -72 0 -38 31 -67 81 -75 47 -8 67
-28 49 -50 -16 -19 -43 -19 -82 1 -28 15 -32 14 -47 -1 -15 -15 -14 -18 7 -35
35 -29 95 -35 139 -13 33 16 38 23 41 56 4 50 -15 71 -76 87 -51 13 -67 27
-50 47 13 16 42 17 70 2 16 -9 24 -7 36 5 14 14 14 18 2 30 -18 18 -77 27
-107 18z"/>
</g>
</svg>
